<svg width="40" height="40" viewBox="0 0 40 40" fill="none" xmlns="http://www.w3.org/2000/svg">
<path fill-rule="evenodd" clip-rule="evenodd" d="M20 39.2C30.6039 39.2 39.2001 30.6039 39.2001 20C39.2001 9.39614 30.6039 0.800003 20 0.800003C9.39618 0.800003 0.800049 9.39614 0.800049 20C0.800049 30.6039 9.39618 39.2 20 39.2ZM28.8971 16.8971C29.8344 15.9598 29.8344 14.4402 28.8971 13.5029C27.9598 12.5657 26.4403 12.5657 25.503 13.5029L17.6 21.4059L14.4971 18.3029C13.5598 17.3657 12.0403 17.3657 11.103 18.3029C10.1657 19.2402 10.1657 20.7598 11.103 21.6971L15.903 26.4971C16.8403 27.4343 18.3598 27.4343 19.2971 26.4971L28.8971 16.8971Z" fill="#FF1578"/>
</svg>
