<svg width="54" height="61" viewBox="0 0 54 61" fill="none" xmlns="http://www.w3.org/2000/svg">
<path d="M51.8028 33.8695L36 29.4797V28.4566C38.9185 26.993 41.2576 24.5873 42.6387 21.6289C44.0199 18.6704 44.3621 15.3325 43.6101 12.1553C42.8581 8.97817 41.0558 6.14781 38.4951 4.12241C35.9343 2.09701 32.7649 0.995117 29.5 0.995117C26.235 0.995117 23.0657 2.09701 20.5049 4.12241C17.9441 6.14781 16.1419 8.97817 15.3898 12.1553C14.6378 15.3325 14.9801 18.6704 16.3612 21.6289C17.7423 24.5873 20.0815 26.993 23 28.4566V37.9998H19.9477L17.636 35.1748C15.752 32.8723 13.036 31.4055 10.0774 31.0927C7.11873 30.7799 4.15609 31.6463 1.83222 33.504C1.4365 33.6554 1.08363 33.9009 0.804134 34.2193C0.524638 34.5377 0.326938 34.9195 0.22814 35.3315C0.129342 35.7435 0.13242 36.1734 0.237109 36.5839C0.341798 36.9945 0.544945 37.3733 0.828972 37.6877L21.8855 60.9998H54V36.7598C53.9985 36.1045 53.7832 35.4676 53.3866 34.9459C52.99 34.4241 52.4339 34.0462 51.8028 33.8695ZM19 15.4998C18.9985 13.7204 19.4493 11.9697 20.31 10.4122C21.1708 8.85479 22.4132 7.54164 23.9207 6.5961C25.4282 5.65056 27.1512 5.10365 28.9281 5.00673C30.7049 4.90981 32.4772 5.26605 34.0786 6.04202C35.68 6.81798 37.0579 7.9882 38.083 9.4428C39.108 10.8974 39.7465 12.5886 39.9386 14.3577C40.1307 16.1268 39.87 17.9157 39.1811 19.5564C38.4921 21.1971 37.3975 22.6358 36 23.7373V15.4998C36 13.7759 35.3152 12.1226 34.0962 10.9037C32.8772 9.68467 31.2239 8.99985 29.5 8.99985C27.7761 8.99985 26.1228 9.68467 24.9038 10.9037C23.6848 12.1226 23 13.7759 23 15.4998V23.7373C21.7535 22.7564 20.7458 21.5053 20.053 20.0784C19.3601 18.6516 19.0001 17.0861 19 15.4998ZM50 56.9998H23.6625L4.8926 36.2186C6.40117 35.2331 8.22075 34.84 10.0016 35.1148C11.7825 35.3896 13.3989 36.313 14.5402 37.7073L18.0527 41.9998H27V15.4998C27 14.8368 27.2634 14.2009 27.7322 13.7321C28.201 13.2632 28.8369 12.9998 29.5 12.9998C30.163 12.9998 30.7989 13.2632 31.2677 13.7321C31.7366 14.2009 32 14.8368 32 15.4998V32.52L50 37.52V56.9998Z" fill="white"/>
</svg>
